<svg xmlns="http://www.w3.org/2000/svg" viewBox="0 0 263.68 174.62"><defs><style>.cls-1{fill:#fff;}.cls-2{fill:#040000;}.cls-3{fill:#a4d7f4;}</style></defs><title>TOMS-FLAG-HO17</title><g id="Layer_2" data-name="Layer 2"><g id="WHITE"><polygon class="cls-1" points="263.68 174.62 0 174.62 0 0 263.68 0 263.68 174.62 263.68 174.62"/></g><g id="Black"><path class="cls-2" d="M108.12,61.37a25.49,25.49,0,0,0-22.3,13,26.39,26.39,0,0,0-3.44,13.21,24.85,24.85,0,0,0,7.57,18.25,25.33,25.33,0,0,0,18.57,7.54h0a25.83,25.83,0,0,0,25.94-26,25,25,0,0,0-7.58-18.48A25.66,25.66,0,0,0,108.12,61.37Zm17.14,36a18.47,18.47,0,0,1-7.06,7.07,19.52,19.52,0,0,1-9.87,2.59A19.26,19.26,0,0,1,89.06,87.56a20,20,0,0,1,2.55-10,19,19,0,0,1,7.1-7.14,18.8,18.8,0,0,1,9.62-2.65h0a19.3,19.3,0,0,1,9.78,2.65,19,19,0,0,1,7.15,7.06,19.49,19.49,0,0,1,2.54,9.88A20,20,0,0,1,125.26,97.34ZM40.41,67.44H56V113h7.25V67.44H78.85V61.25H40.41ZM221.17,90.93c-1.41-2.29-3.84-4.24-7.26-5.86l-4.06-1.93a29.35,29.35,0,0,1-5.14-2.91,6.9,6.9,0,0,1-1.9-2.51,7.91,7.91,0,0,1-.69-3.34,6.51,6.51,0,0,1,1.9-4.85,7.12,7.12,0,0,1,5.24-1.88,16.34,16.34,0,0,1,5.07.9,15.36,15.36,0,0,1,4.06,1.85l.32.23,2.2-6.45-.15-.13c-2.25-1.86-6.12-2.74-11.64-2.74a14.52,14.52,0,0,0-10.3,3.74,12.37,12.37,0,0,0-4,9.43,14.88,14.88,0,0,0,2.06,8c1.38,2.24,3.8,4.14,7.21,5.74l4,1.86c3.57,1.68,5.77,3.25,6.6,4.59a8.39,8.39,0,0,1,1.29,4.51,6.81,6.81,0,0,1-2.31,5.31,8.84,8.84,0,0,1-6.17,2.1,16.16,16.16,0,0,1-5-.91,16.6,16.6,0,0,1-4.65-2.27l-.3-.22L194.83,110l.19.13a20.19,20.19,0,0,0,11.45,3.16c5.06,0,9.15-1.32,12.21-4a12.42,12.42,0,0,0,4.59-9.71A16.29,16.29,0,0,0,221.17,90.93ZM174.91,61.49l-11,36.45L152,61.49h-3.6L138.78,113H146l5.74-31.89,11.17,32H165l10.84-32,5.9,31.88h7.18l-10.43-51.5Z"/></g><g id="_291_Blue" data-name="291 Blue"><path class="cls-3" d="M0,0V56H263.68V0ZM0,174.62H263.68v-56H0Z"/></g></g></svg>